<?xml version="1.0" standalone="no"?>
<!DOCTYPE svg PUBLIC "-//W3C//DTD SVG 20010904//EN"
 "http://www.w3.org/TR/2001/REC-SVG-20010904/DTD/svg10.dtd">
<svg version="1.0" xmlns="http://www.w3.org/2000/svg"
 width="2000.000000pt" height="1915.000000pt" viewBox="0 0 2000.000000 1915.000000"
 preserveAspectRatio="xMidYMid meet">

<g transform="translate(0.000000,1915.000000) scale(0.100000,-0.100000)"
fill="#000000" stroke="none">
<path d="M0 9575 l0 -9575 10000 0 10000 0 0 9575 0 9575 -10000 0 -10000 0 0
-9575z m10029 9128 c-3 -51 8 -113 20 -113 4 0 7 -8 7 -17 1 -26 67 -227 75
-231 4 -2 5 -10 2 -18 -3 -8 -1 -14 3 -14 5 0 10 -12 11 -26 0 -15 5 -29 10
-33 4 -3 8 -10 8 -16 0 -15 38 -139 45 -145 3 -3 6 -16 8 -30 1 -14 7 -26 12
-28 5 -2 6 -10 3 -18 -3 -8 -1 -14 3 -14 5 0 10 -12 11 -26 0 -15 5 -29 10
-33 4 -3 8 -10 8 -16 0 -19 49 -175 55 -175 3 0 6 -8 6 -17 0 -19 66 -225 74
-233 3 -3 6 -16 8 -30 1 -14 7 -26 12 -28 5 -2 6 -10 3 -18 -3 -8 -1 -14 3
-14 5 0 10 -12 11 -26 0 -15 5 -29 10 -33 4 -3 9 -13 9 -21 2 -23 65 -224 73
-230 3 -3 6 -9 6 -15 0 -22 69 -235 77 -235 4 0 5 -7 2 -15 -4 -8 -2 -15 2
-15 5 0 10 -12 11 -26 0 -15 5 -29 10 -33 4 -3 8 -10 8 -16 0 -23 40 -145 48
-145 4 0 6 -4 3 -8 -6 -10 14 -82 23 -82 3 0 7 -12 8 -26 0 -15 5 -29 10 -33
4 -3 8 -10 8 -16 0 -22 49 -175 57 -175 4 0 5 -7 2 -15 -4 -8 -2 -15 2 -15 5
0 10 -12 11 -26 0 -15 5 -29 10 -33 4 -3 8 -10 8 -16 0 -15 38 -139 45 -145 3
-3 6 -16 8 -30 1 -14 7 -26 12 -28 5 -2 6 -10 3 -18 -3 -8 -1 -14 3 -14 5 0
10 -12 11 -26 0 -15 5 -29 10 -33 4 -3 9 -14 9 -23 2 -27 147 -473 155 -476 5
-2 5 -10 2 -18 -3 -8 -1 -14 3 -14 5 0 10 -12 11 -26 0 -15 5 -29 10 -33 4 -3
8 -10 8 -16 0 -23 40 -145 48 -145 4 0 6 -4 3 -9 -6 -9 12 -72 23 -81 3 -3 7
-12 7 -20 2 -27 68 -225 75 -228 4 -2 5 -10 2 -18 -3 -8 -1 -14 3 -14 5 0 10
-12 11 -26 0 -15 5 -29 10 -33 4 -3 8 -10 8 -16 0 -15 38 -139 45 -145 3 -3 6
-16 8 -30 1 -14 7 -26 12 -28 5 -2 6 -10 3 -18 -3 -8 -1 -14 3 -14 5 0 10 -12
11 -26 0 -15 5 -29 10 -33 4 -3 9 -14 9 -23 2 -21 126 -411 134 -418 3 -3 6
-16 8 -30 1 -14 7 -26 12 -28 5 -2 6 -10 3 -18 -3 -8 -1 -14 3 -14 5 0 10 -12
11 -26 0 -15 5 -29 10 -33 4 -3 8 -10 8 -16 0 -23 40 -145 48 -145 4 0 6 -4 3
-9 -6 -9 12 -72 23 -81 3 -3 6 -9 6 -15 0 -22 69 -235 77 -235 4 0 5 -7 2 -15
-4 -8 -2 -15 2 -15 5 0 10 -12 11 -26 0 -15 5 -29 10 -33 4 -3 8 -10 8 -16 0
-15 38 -139 45 -145 3 -3 6 -16 8 -30 1 -14 7 -26 12 -28 5 -2 6 -10 3 -18 -3
-8 -1 -14 3 -14 5 0 10 -12 11 -26 0 -15 5 -29 10 -33 4 -3 8 -10 8 -16 0 -24
50 -175 57 -175 5 0 7 -4 4 -9 -6 -9 12 -72 23 -81 3 -3 6 -9 6 -15 0 -15 38
-139 45 -145 3 -3 6 -16 8 -30 1 -14 7 -26 12 -28 5 -2 6 -10 3 -18 -3 -8 -1
-14 3 -14 5 0 10 -12 11 -26 0 -15 5 -29 10 -33 4 -3 9 -13 9 -22 2 -29 147
-474 156 -477 4 -2 5 -8 2 -14 -4 -6 0 -14 7 -19 11 -7 9 -9 -7 -9 -16 0 -263
-341 -1089 -1500 -587 -825 -1069 -1499 -1071 -1497 -2 2 -15 1607 -29 3568
-13 1960 -29 4111 -35 4779 -14 1777 -14 1650 1 1650 7 0 10 -18 8 -47z m-19
-4893 c11 -2351 20 -4453 20 -4671 l0 -397 -36 8 c-20 5 -42 14 -49 22 -12 13
-980 1319 -1769 2388 -225 305 -410 562 -410 570 0 16 2202 6878 2213 6895 8
13 8 63 31 -4815z m9500 -2101 c-14 -11 -37 -31 -52 -44 -16 -13 -28 -20 -28
-17 -1 4 -10 -4 -20 -17 -11 -13 -20 -19 -20 -15 -1 5 -9 -1 -20 -14 -10 -13
-22 -22 -25 -21 -10 2 -245 -172 -245 -182 0 -5 -4 -8 -9 -6 -12 3 -101 -62
-101 -75 0 -6 -3 -9 -6 -5 -8 7 -144 -91 -144 -104 0 -6 -4 -8 -9 -5 -5 3 -23
-7 -40 -23 -17 -16 -31 -26 -31 -23 -1 4 -10 -4 -20 -17 -11 -13 -20 -19 -20
-15 -1 5 -9 -1 -20 -14 -10 -13 -23 -23 -27 -22 -12 0 -163 -113 -163 -123 0
-4 -4 -6 -8 -3 -5 3 -26 -11 -48 -31 -21 -19 -41 -35 -44 -34 -11 2 -90 -61
-90 -71 0 -6 -3 -9 -6 -5 -8 7 -144 -91 -144 -104 0 -6 -4 -8 -9 -5 -5 3 -23
-7 -40 -23 -17 -16 -31 -26 -31 -23 -1 4 -10 -4 -20 -17 -11 -13 -20 -19 -20
-15 -1 5 -10 -2 -21 -16 -12 -14 -24 -24 -28 -22 -9 3 -161 -110 -161 -121 0
-4 -4 -6 -8 -3 -5 3 -25 -9 -44 -27 -19 -18 -39 -33 -44 -35 -19 -5 -244 -174
-244 -183 0 -5 -4 -8 -9 -7 -12 4 -101 -61 -101 -73 0 -6 -4 -8 -9 -4 -5 3
-16 -3 -23 -13 -7 -11 -16 -19 -20 -18 -10 2 -168 -117 -168 -127 0 -4 -4 -6
-9 -2 -5 3 -17 -5 -25 -17 -9 -12 -16 -18 -16 -13 -1 6 -10 -1 -21 -15 -12
-14 -23 -23 -24 -20 -5 7 -165 -112 -165 -123 0 -4 -4 -6 -8 -3 -5 3 -26 -10
-46 -29 -20 -18 -39 -33 -40 -32 -8 4 -96 -65 -96 -75 0 -6 -3 -9 -6 -5 -8 7
-144 -91 -144 -104 0 -6 -4 -8 -9 -5 -5 3 -23 -7 -40 -23 -17 -16 -31 -26 -31
-23 -1 4 -10 -4 -20 -17 -11 -13 -20 -19 -20 -15 -1 5 -8 0 -18 -12 -9 -11
-20 -20 -24 -20 -11 1 -168 -117 -168 -127 0 -4 -4 -6 -8 -3 -5 3 -26 -10 -46
-29 -20 -18 -40 -34 -42 -33 -11 1 -244 -174 -244 -184 0 -5 -4 -7 -9 -4 -5 3
-23 -7 -40 -23 -17 -16 -31 -26 -31 -23 -1 4 -10 -4 -20 -17 -11 -13 -20 -19
-20 -15 -1 5 -9 -1 -20 -14 -10 -13 -21 -22 -24 -20 -7 5 -166 -115 -166 -125
0 -4 -4 -6 -9 -2 -5 3 -17 -5 -25 -17 -9 -12 -16 -18 -16 -13 -1 6 -9 0 -20
-13 -10 -13 -22 -22 -25 -21 -10 2 -245 -172 -245 -182 0 -5 -4 -8 -9 -6 -12
3 -101 -62 -101 -75 0 -6 -3 -9 -6 -5 -8 7 -144 -91 -144 -104 0 -6 -4 -8 -9
-5 -5 3 -23 -7 -40 -23 -17 -16 -31 -26 -31 -23 -1 4 -10 -4 -20 -17 -11 -13
-20 -19 -20 -15 -1 5 -8 0 -18 -12 -9 -11 -20 -20 -24 -20 -11 1 -168 -117
-168 -127 0 -4 -4 -6 -8 -3 -5 3 -26 -10 -46 -29 -20 -18 -40 -34 -44 -34 -15
-2 -92 -63 -92 -73 0 -6 -3 -9 -6 -5 -8 7 -144 -91 -144 -104 0 -6 -4 -8 -9
-5 -5 3 -23 -7 -40 -23 -17 -16 -31 -26 -31 -23 -1 4 -10 -4 -20 -17 -11 -13
-20 -19 -20 -15 -1 5 -10 -2 -21 -16 -12 -14 -23 -23 -24 -20 -5 7 -165 -112
-165 -123 0 -4 -4 -6 -8 -3 -5 3 -26 -10 -46 -29 -20 -18 -39 -33 -41 -32 -2
1 -42 -26 -88 -60 -47 -35 -91 -63 -100 -63 -13 0 -11 -13 11 -82 15 -46 29
-85 32 -88 3 -3 5 -9 5 -15 1 -26 18 -75 25 -75 5 0 7 -7 4 -15 -4 -8 -1 -15
5 -15 6 0 8 -7 5 -15 -4 -8 -1 -15 6 -15 6 0 9 -4 6 -9 -6 -9 12 -72 23 -81 3
-3 6 -10 6 -16 0 -14 68 -228 75 -234 3 -3 5 -9 5 -15 1 -23 17 -75 23 -75 4
0 8 -12 9 -26 0 -15 5 -29 10 -33 4 -3 8 -10 8 -16 1 -23 17 -75 24 -75 4 0 7
-8 7 -17 0 -19 66 -225 74 -233 3 -3 5 -9 5 -15 1 -23 17 -75 23 -75 4 0 8
-12 9 -26 0 -15 5 -29 10 -33 4 -3 8 -10 8 -16 1 -23 17 -75 24 -75 4 0 7 -8
7 -17 1 -27 106 -348 115 -351 4 -2 5 -10 2 -18 -3 -8 0 -14 6 -14 6 0 8 -7 5
-15 -4 -8 -1 -15 6 -15 6 0 9 -4 6 -9 -6 -9 12 -72 23 -81 3 -3 7 -12 7 -20 2
-21 66 -224 73 -230 3 -3 6 -9 6 -15 1 -26 18 -75 25 -75 5 0 7 -7 4 -15 -4
-8 -1 -15 5 -15 6 0 8 -7 5 -15 -4 -8 -1 -15 6 -15 6 0 9 -4 6 -9 -6 -9 12
-72 23 -81 3 -3 6 -10 6 -16 0 -14 68 -228 75 -234 3 -3 5 -9 5 -15 1 -23 17
-75 23 -75 4 0 8 -12 9 -26 0 -15 5 -29 10 -33 4 -3 8 -10 8 -16 1 -23 17 -75
24 -75 4 0 7 -8 7 -17 1 -22 95 -316 103 -323 3 -3 7 -16 9 -30 1 -13 6 -27
10 -30 4 -3 7 -9 7 -15 1 -26 18 -75 25 -75 5 0 7 -7 4 -15 -4 -8 -2 -15 3
-15 5 0 9 -8 9 -17 0 -19 66 -225 74 -233 3 -3 5 -9 5 -15 1 -26 18 -75 25
-75 5 0 7 -7 4 -15 -4 -8 -1 -15 5 -15 6 0 8 -7 5 -15 -4 -8 -1 -15 6 -15 6 0
9 -4 6 -9 -6 -9 12 -72 23 -81 3 -3 6 -10 6 -16 0 -14 68 -228 75 -234 3 -3 5
-9 5 -15 1 -23 17 -75 23 -75 4 0 8 -12 9 -26 0 -15 5 -29 10 -33 4 -3 8 -10
8 -16 1 -23 17 -75 24 -75 4 0 7 -8 7 -17 0 -19 66 -225 74 -233 3 -3 5 -9 5
-15 1 -23 17 -75 23 -75 4 0 8 -12 9 -26 0 -15 5 -29 10 -33 4 -3 8 -10 8 -16
1 -23 17 -75 24 -75 4 0 7 -8 7 -17 1 -27 106 -348 115 -351 4 -2 5 -10 2 -18
-3 -8 0 -14 6 -14 6 0 8 -7 5 -15 -4 -8 -1 -15 6 -15 6 0 9 -4 6 -9 -6 -9 12
-72 23 -81 3 -3 7 -12 7 -20 2 -21 66 -224 73 -230 3 -3 6 -9 6 -15 1 -26 18
-75 25 -75 5 0 7 -7 4 -15 -4 -8 -1 -15 5 -15 6 0 8 -7 5 -15 -4 -8 -1 -15 6
-15 6 0 9 -4 6 -9 -6 -9 12 -72 23 -81 3 -3 6 -10 6 -16 0 -14 68 -228 75
-234 3 -3 5 -9 5 -15 1 -23 17 -75 23 -75 4 0 8 -12 9 -26 0 -15 5 -29 10 -33
4 -3 8 -10 8 -16 1 -23 17 -75 24 -75 4 0 7 -8 7 -17 0 -19 66 -225 74 -233 3
-3 5 -9 5 -15 1 -23 17 -75 23 -75 4 0 8 -12 9 -26 0 -15 5 -29 10 -33 4 -3 8
-10 8 -16 1 -27 18 -75 26 -75 6 0 7 -5 3 -11 -3 -6 -1 -15 5 -19 9 -5 7 -11
-6 -21 -10 -7 -15 -10 -11 -5 8 9 -50 96 -64 96 -4 0 -7 4 -6 8 3 8 -474 674
-504 704 -10 10 -16 18 -13 18 8 0 -104 153 -123 167 -9 7 -13 13 -9 13 10 0
-100 150 -121 168 -9 6 -13 12 -9 12 10 0 -100 150 -121 168 -9 6 -13 12 -9
12 9 0 -100 150 -120 167 -8 6 -14 14 -13 18 1 7 -1727 2402 -1752 2427 -10
10 -16 18 -13 18 8 0 -104 153 -123 168 -9 6 -13 12 -9 12 10 0 -100 150 -121
167 -9 7 -13 13 -9 13 10 0 -100 150 -121 167 -9 7 -13 13 -9 13 10 0 -100
150 -121 168 -9 6 -13 12 -9 12 9 0 -98 149 -118 165 -6 6 -12 14 -13 18 -1
10 -352 497 -374 519 -10 10 -16 18 -13 18 8 0 -104 153 -123 168 -9 6 -13 12
-9 12 10 0 -100 150 -121 168 -9 6 -13 12 -9 12 10 0 -100 150 -121 168 -9 6
-13 12 -9 12 9 0 -100 151 -121 168 -9 6 -13 12 -9 12 8 0 -99 149 -118 165
-7 6 -13 15 -14 20 -3 12 -1260 1753 -1282 1776 -46 46 5 36 281 -56 156 -52
285 -93 287 -91 2 2 -113 43 -254 91 -142 48 -269 93 -283 100 -23 12 -11 17
155 71 1942 622 9273 2963 9280 2963 6 0 -1 -9 -15 -20z m-9555 -3038 c7 -12
-2915 -4166 -4154 -5906 -196 -275 -355 -501 -353 -503 2 -2 -5 -10 -15 -18
-10 -7 -14 -14 -9 -14 4 0 -2 -9 -15 -21 -13 -11 -17 -18 -9 -14 8 4 6 -1 -5
-10 -11 -9 -19 -21 -17 -26 1 -5 -2 -9 -7 -9 -5 0 -20 -14 -32 -32 -13 -18
-17 -28 -8 -24 7 5 2 -2 -12 -15 -14 -13 -32 -33 -40 -43 -12 -17 -12 -19 1
-12 8 5 3 -2 -11 -15 -14 -13 -32 -33 -40 -43 -12 -17 -12 -19 1 -12 8 5 3 -2
-11 -15 -14 -13 -32 -33 -40 -43 -12 -17 -12 -19 1 -12 8 4 4 -2 -10 -14 -14
-12 -18 -19 -10 -15 8 4 4 -3 -10 -16 -14 -13 -21 -22 -15 -19 6 3 -1 -6 -15
-19 -14 -13 -18 -20 -10 -16 8 4 4 -3 -10 -16 -14 -13 -21 -22 -15 -19 6 3 -1
-6 -15 -19 -14 -13 -18 -20 -10 -16 8 4 4 -3 -10 -16 -14 -13 -19 -19 -10 -14
13 9 13 8 1 -10 -8 -11 -26 -31 -41 -45 -14 -14 -19 -20 -11 -15 10 7 9 2 -3
-17 -17 -26 -35 -41 -20 -16 4 7 3 8 -4 4 -6 -4 -9 -13 -6 -20 3 -7 -3 -19
-13 -27 -17 -13 -17 -13 -3 6 14 18 14 19 -2 7 -9 -8 -15 -19 -12 -27 3 -7 0
-16 -7 -21 -8 -5 -10 -3 -4 6 5 8 4 11 -3 6 -6 -4 -9 -13 -6 -20 3 -7 -3 -19
-13 -27 -17 -13 -17 -13 -3 6 14 18 14 19 -2 7 -9 -8 -15 -19 -12 -27 3 -7 0
-16 -7 -21 -8 -5 -10 -3 -4 6 5 8 4 11 -3 6 -6 -4 -9 -13 -6 -20 3 -8 0 -17
-7 -22 -8 -5 -10 -3 -4 7 8 12 6 12 -8 0 -19 -15 -23 -26 -6 -15 7 4 10 1 7
-7 -3 -8 -11 -14 -19 -14 -8 0 -13 -8 -11 -17 1 -9 -3 -20 -9 -24 -8 -5 -9 -3
-4 7 8 12 6 12 -8 0 -19 -15 -23 -26 -6 -15 7 4 10 1 7 -7 -3 -8 -10 -14 -16
-14 -5 0 -14 -4 -19 -9 -5 -5 -2 -6 6 -1 9 5 12 3 9 -6 -3 -8 -11 -14 -19 -14
-8 0 -14 -9 -14 -20 0 -11 -5 -20 -12 -20 -6 0 -15 -4 -20 -9 -5 -5 -2 -6 6
-1 9 5 12 3 9 -6 -3 -8 -11 -14 -19 -14 -8 0 -14 -9 -14 -20 0 -11 -5 -20 -12
-20 -6 0 -15 -4 -20 -9 -5 -5 -2 -6 6 -1 9 5 12 3 9 -6 -3 -8 -10 -14 -16 -14
-5 0 -14 -4 -19 -9 -5 -5 -3 -6 5 -2 6 4 12 3 12 -2 0 -13 -25 -33 -32 -26 -3
3 -5 -3 -5 -13 1 -9 -3 -18 -10 -18 -6 0 -15 -4 -20 -9 -5 -5 -3 -6 5 -2 18
10 15 -2 -9 -35 -11 -16 -24 -27 -29 -24 -5 3 -12 0 -16 -6 -4 -8 -3 -9 4 -5
18 11 14 -3 -9 -35 -11 -16 -24 -27 -29 -24 -5 3 -12 0 -16 -6 -4 -8 -3 -9 4
-5 7 4 12 4 12 1 0 -17 -289 -416 -332 -459 -27 -26 -51 -46 -52 -45 -4 6
2290 7021 2300 7034 5 7 158 63 339 124 480 164 3168 1101 3174 1106 7 8 19 6
26 -4z m39 -2019 c13 -1044 26 -1904 30 -1910 4 -7 4 -12 -1 -11 -15 4 -43
-13 -37 -22 3 -5 1 -8 -4 -7 -12 4 -322 -222 -322 -234 0 -5 -4 -7 -8 -4 -5 3
-25 -10 -45 -28 -20 -18 -38 -31 -40 -29 -3 2 -18 -10 -36 -26 -17 -16 -31
-26 -31 -23 -1 4 -10 -4 -20 -17 -11 -13 -20 -19 -20 -15 -1 5 -10 -2 -21 -16
-12 -14 -22 -23 -24 -20 -4 8 -95 -60 -95 -71 0 -5 -4 -8 -8 -6 -11 3 -292
-203 -292 -214 0 -6 -4 -8 -9 -5 -5 3 -23 -7 -40 -23 -16 -15 -32 -27 -34 -25
-2 2 -20 -12 -41 -31 -20 -18 -40 -34 -44 -34 -14 -2 -92 -63 -92 -72 0 -6 -4
-8 -9 -4 -5 3 -16 -3 -23 -13 -7 -11 -17 -19 -21 -19 -14 -1 -317 -226 -317
-235 0 -5 -4 -7 -8 -4 -5 3 -25 -10 -45 -28 -20 -18 -38 -31 -40 -29 -3 2 -18
-10 -36 -26 -17 -16 -31 -26 -31 -23 -1 4 -10 -4 -20 -17 -11 -13 -20 -19 -20
-15 -1 5 -10 -2 -21 -16 -12 -14 -22 -23 -24 -20 -4 8 -95 -60 -95 -71 0 -5
-3 -8 -7 -7 -15 3 -43 -14 -37 -23 3 -5 1 -8 -4 -7 -12 4 -322 -222 -322 -234
0 -5 -4 -7 -8 -4 -5 3 -25 -10 -45 -28 -20 -18 -38 -31 -40 -29 -3 2 -18 -10
-36 -26 -17 -16 -31 -26 -31 -23 -1 4 -10 -4 -20 -17 -11 -13 -20 -19 -20 -15
-1 5 -10 -2 -21 -16 -12 -14 -22 -23 -24 -20 -4 8 -95 -60 -95 -71 0 -5 -4 -8
-8 -6 -11 3 -292 -203 -292 -214 0 -6 -4 -8 -9 -5 -5 3 -23 -7 -40 -23 -16
-15 -32 -27 -34 -25 -2 2 -20 -12 -41 -31 -20 -18 -40 -34 -44 -34 -14 -2 -92
-63 -92 -72 0 -6 -4 -8 -9 -4 -5 3 -17 -5 -26 -17 -8 -13 -18 -21 -21 -19 -8
5 -394 -279 -394 -290 0 -6 -4 -8 -9 -5 -5 3 -23 -7 -40 -23 -17 -16 -31 -26
-31 -23 -1 4 -10 -4 -20 -17 -11 -13 -20 -19 -20 -15 -1 5 -8 0 -18 -12 -9
-11 -20 -20 -23 -20 -12 1 -99 -65 -99 -75 0 -5 -3 -8 -7 -7 -15 3 -43 -14
-37 -23 3 -5 1 -8 -4 -7 -12 4 -322 -222 -322 -234 0 -5 -4 -7 -8 -4 -5 3 -25
-10 -45 -28 -20 -18 -38 -31 -40 -29 -3 2 -18 -10 -36 -26 -17 -16 -31 -26
-31 -23 -1 4 -10 -4 -20 -17 -11 -13 -20 -19 -20 -15 -1 5 -10 -2 -21 -16 -12
-14 -24 -24 -28 -23 -10 4 -91 -57 -91 -68 0 -6 -4 -8 -9 -4 -5 3 -17 -5 -26
-17 -8 -13 -17 -21 -19 -18 -6 7 -246 -170 -246 -182 0 -5 -4 -7 -9 -4 -5 3
-23 -7 -40 -23 -16 -15 -32 -27 -34 -25 -2 2 -20 -12 -41 -31 -20 -18 -40 -34
-44 -34 -14 -2 -92 -63 -92 -72 0 -6 -4 -8 -9 -4 -5 3 -16 -3 -23 -13 -7 -11
-17 -19 -21 -20 -15 0 -397 -283 -397 -293 0 -6 -4 -8 -9 -5 -5 3 -23 -8 -41
-24 -18 -17 -30 -24 -27 -17 2 7 634 899 1402 1982 769 1084 2048 2887 2843
4007 795 1121 1447 2036 1450 2033 2 -2 14 -858 26 -1903z"/>
<path d="M10790 8447 c0 -7 122 -48 127 -43 3 2 -20 12 -49 21 -29 10 -59 20
-65 23 -7 2 -13 2 -13 -1z"/>
</g>
</svg>
